<?xml version="1.0" standalone="no"?>
<!DOCTYPE svg PUBLIC "-//W3C//DTD SVG 20010904//EN"
 "http://www.w3.org/TR/2001/REC-SVG-20010904/DTD/svg10.dtd">
<svg version="1.0" xmlns="http://www.w3.org/2000/svg"
 width="540.000000pt" height="540.000000pt" viewBox="0 0 540.000000 540.000000"
 preserveAspectRatio="xMidYMid meet">
<metadata>
Created by potrace 1.14, written by Peter Selinger 2001-2017
</metadata>
<g transform="translate(0.000000,540.000000) scale(0.100000,-0.100000)"
fill="#000000" stroke="none">
<path d="M4466 3415 c-11 -8 -30 -15 -42 -15 -53 0 -227 -79 -304 -139 -133
-103 -216 -219 -271 -376 -22 -63 -24 -86 -24 -235 0 -137 3 -174 19 -220 76
-218 194 -357 381 -448 91 -44 133 -57 260 -84 62 -13 297 -4 345 12 190 67
229 89 330 190 74 74 140 153 140 169 0 6 -6 11 -14 11 -7 0 -25 9 -39 20 -31
24 -50 18 -75 -23 -82 -137 -199 -227 -347 -267 -78 -22 -150 -25 -210 -9 -22
6 -56 14 -75 18 -68 16 -164 75 -235 146 -113 114 -171 254 -181 445 -6 111
15 260 46 325 5 11 14 31 20 45 42 103 166 231 275 284 82 39 226 70 282 60
165 -29 244 -74 353 -201 34 -40 65 -84 73 -105 3 -10 16 -18 27 -18 23 0 69
46 70 69 0 27 -145 184 -217 234 -75 53 -112 69 -205 94 -32 9 -58 20 -58 24
0 5 -69 9 -152 9 -119 -1 -157 -4 -172 -15z"/>
<path d="M500 3388 c0 -10 14 -18 42 -22 54 -9 100 -37 142 -89 62 -77 62 -79
21 -165 -21 -43 -48 -99 -60 -127 -50 -108 -99 -215 -147 -315 -28 -58 -64
-134 -80 -170 -17 -36 -35 -72 -39 -80 -5 -8 -12 -22 -15 -30 -3 -8 -16 -37
-29 -65 -12 -27 -35 -77 -50 -110 -15 -33 -31 -67 -36 -75 -5 -8 -12 -22 -15
-30 -3 -8 -21 -47 -41 -87 -20 -39 -33 -78 -30 -87 7 -18 67 -22 97 -6 18 10
100 169 100 194 0 8 7 19 15 26 8 7 15 18 15 24 0 6 16 43 35 81 19 39 35 76
35 83 0 6 4 12 9 12 5 0 14 14 20 30 l10 30 302 -2 301 -3 38 -75 c21 -41 59
-119 85 -172 84 -175 166 -224 396 -235 125 -6 179 -1 179 16 0 5 -14 13 -32
16 -113 25 -166 91 -285 355 -9 19 -20 42 -25 50 -4 8 -11 22 -14 30 -3 8 -18
42 -34 75 -16 33 -34 71 -40 85 -5 14 -14 32 -19 40 -4 8 -15 31 -23 50 -16
36 -52 113 -131 280 -25 52 -61 131 -82 175 -20 44 -41 87 -46 95 -5 8 -16 29
-24 46 -19 42 -69 88 -124 115 -25 12 -55 27 -66 32 -11 6 -95 13 -187 15
-145 4 -168 2 -168 -10z m345 -425 c20 -43 51 -109 70 -148 18 -38 36 -77 39
-85 3 -8 10 -22 15 -30 31 -53 81 -171 76 -180 -8 -13 -481 -14 -489 -1 -3 5
5 31 18 58 14 26 46 93 71 148 26 55 59 127 75 160 15 33 38 81 50 108 12 26
26 47 31 47 5 0 25 -35 44 -77z"/>
<path d="M2077 3384 c-4 -4 -7 -332 -7 -730 l0 -722 23 -6 c29 -8 201 -8 221
0 14 5 16 45 16 345 0 326 1 339 20 349 12 7 139 9 367 8 l348 -3 3 -339 c1
-235 6 -343 14 -353 8 -10 38 -13 127 -11 l116 3 3 733 2 733 -127 -3 -128 -3
-3 -326 -2 -327 -23 -6 c-37 -10 -681 -7 -697 4 -13 8 -16 60 -20 332 l-5 323
-121 3 c-66 1 -123 -1 -127 -4z"/>
</g>
</svg>
